<svg xmlns="http://www.w3.org/2000/svg" xmlns:xlink="http://www.w3.org/1999/xlink" width="128" zoomAndPan="magnify" viewBox="0 0 96 95.999999" height="128" preserveAspectRatio="xMidYMid meet" version="1.0"><defs><g/><clipPath id="c3116f61d9"><path d="M 26.664062 16.914062 L 69.414062 16.914062 L 69.414062 59.664062 L 26.664062 59.664062 Z M 26.664062 16.914062 " clip-rule="nonzero"/></clipPath></defs><rect x="-9.6" width="115.2" fill="#ffffff" y="-9.6" height="115.199999" fill-opacity="1"/><rect x="-9.6" width="115.2" fill="#ffffff" y="-9.6" height="115.199999" fill-opacity="1"/><path fill="#000000" d="M 48 0 C 21.515625 0 0 21.515625 0 48 C 0 74.484375 21.515625 96 48 96 C 74.484375 96 96 74.484375 96 48 C 96 21.515625 74.484375 0 48 0 Z M 48 2.085938 C 73.382812 2.085938 93.914062 22.617188 93.914062 48 C 93.914062 73.382812 73.382812 93.914062 48 93.914062 C 22.617188 93.914062 2.085938 73.382812 2.085938 48 C 2.085938 22.617188 22.617188 2.085938 48 2.085938 Z M 48 2.085938 " fill-opacity="1" fill-rule="nonzero"/><g clip-path="url(#c3116f61d9)"><path fill="#000000" d="M 31.753906 45.027344 C 31.492188 44.878906 31.238281 44.730469 30.992188 44.574219 C 28.230469 42.824219 26.660156 40.621094 26.660156 38.285156 C 26.660156 35.949219 28.230469 33.746094 30.992188 31.996094 C 31.238281 31.839844 31.492188 31.6875 31.753906 31.539062 C 31.671875 31.25 31.601562 30.964844 31.535156 30.683594 C 30.820312 27.488281 31.269531 24.824219 32.921875 23.171875 C 34.574219 21.519531 37.238281 21.070312 40.433594 21.785156 C 40.714844 21.851562 41 21.921875 41.289062 22.003906 C 41.4375 21.742188 41.589844 21.488281 41.746094 21.242188 C 43.496094 18.480469 45.699219 16.910156 48.035156 16.910156 C 50.371094 16.910156 52.574219 18.480469 54.324219 21.242188 C 54.480469 21.488281 54.628906 21.742188 54.777344 22.003906 C 55.070312 21.921875 55.355469 21.851562 55.636719 21.785156 C 58.828125 21.070312 61.496094 21.519531 63.148438 23.171875 C 64.796875 24.824219 65.25 27.488281 64.53125 30.683594 C 64.46875 30.964844 64.394531 31.25 64.316406 31.539062 C 64.578125 31.6875 64.832031 31.839844 65.074219 31.996094 C 67.839844 33.746094 69.40625 35.949219 69.40625 38.285156 C 69.40625 40.621094 67.839844 42.824219 65.074219 44.574219 C 64.832031 44.730469 64.578125 44.878906 64.316406 45.027344 C 64.394531 45.320312 64.46875 45.605469 64.53125 45.886719 C 65.25 49.078125 64.796875 51.746094 63.148438 53.398438 C 61.496094 55.046875 58.828125 55.5 55.636719 54.78125 C 55.355469 54.71875 55.070312 54.644531 54.777344 54.566406 C 54.628906 54.828125 54.480469 55.082031 54.324219 55.324219 C 52.574219 58.089844 50.371094 59.65625 48.035156 59.65625 C 45.699219 59.65625 43.496094 58.089844 41.746094 55.324219 C 41.589844 55.082031 41.4375 54.828125 41.289062 54.566406 C 41 54.644531 40.714844 54.71875 40.433594 54.78125 C 37.238281 55.5 34.574219 55.046875 32.921875 53.398438 C 31.269531 51.746094 30.820312 49.078125 31.535156 45.886719 C 31.601562 45.605469 31.671875 45.320312 31.753906 45.027344 Z M 32.230469 33.007812 C 32.082031 33.09375 31.941406 33.183594 31.800781 33.269531 C 29.558594 34.6875 28.171875 36.390625 28.171875 38.285156 C 28.171875 40.175781 29.558594 41.878906 31.800781 43.300781 C 31.941406 43.386719 32.082031 43.472656 32.230469 43.5625 C 32.84375 41.878906 33.730469 40.09375 34.863281 38.285156 C 33.730469 36.472656 32.84375 34.691406 32.230469 33.007812 Z M 40.589844 23.378906 C 40.425781 23.335938 40.261719 23.296875 40.101562 23.261719 C 37.511719 22.679688 35.328125 22.902344 33.988281 24.238281 C 32.652344 25.578125 32.429688 27.761719 33.011719 30.351562 C 33.046875 30.511719 33.085938 30.675781 33.128906 30.839844 C 34.753906 30.085938 36.640625 29.449219 38.722656 28.972656 C 39.199219 26.890625 39.835938 25.003906 40.589844 23.378906 Z M 53.3125 22.480469 C 53.222656 22.332031 53.136719 22.191406 53.050781 22.050781 C 51.628906 19.808594 49.925781 18.421875 48.035156 18.421875 C 46.140625 18.421875 44.4375 19.808594 43.019531 22.050781 C 42.933594 22.191406 42.84375 22.332031 42.757812 22.480469 C 44.441406 23.09375 46.222656 23.980469 48.035156 25.113281 C 49.84375 23.980469 51.628906 23.09375 53.3125 22.480469 Z M 62.941406 30.839844 C 62.984375 30.675781 63.023438 30.511719 63.058594 30.351562 C 63.640625 27.761719 63.417969 25.578125 62.078125 24.238281 C 60.742188 22.902344 58.554688 22.679688 55.96875 23.261719 C 55.808594 23.296875 55.644531 23.335938 55.480469 23.378906 C 56.234375 25.003906 56.867188 26.890625 57.347656 28.972656 C 59.429688 29.449219 61.316406 30.085938 62.941406 30.839844 Z M 63.839844 43.5625 C 63.984375 43.472656 64.128906 43.386719 64.269531 43.300781 C 66.507812 41.878906 67.898438 40.175781 67.898438 38.285156 C 67.898438 36.390625 66.507812 34.6875 64.269531 33.269531 C 64.128906 33.183594 63.984375 33.09375 63.839844 33.007812 C 63.222656 34.691406 62.335938 36.472656 61.207031 38.285156 C 62.335938 40.09375 63.222656 41.878906 63.839844 43.5625 Z M 55.480469 53.191406 C 55.644531 53.234375 55.808594 53.273438 55.96875 53.308594 C 58.554688 53.890625 60.742188 53.667969 62.078125 52.328125 C 63.417969 50.992188 63.640625 48.804688 63.058594 46.21875 C 63.023438 46.058594 62.984375 45.894531 62.941406 45.730469 C 61.316406 46.484375 59.429688 47.117188 57.347656 47.597656 C 56.867188 49.679688 56.234375 51.566406 55.480469 53.191406 Z M 42.757812 54.089844 C 42.84375 54.234375 42.933594 54.378906 43.019531 54.519531 C 44.4375 56.757812 46.140625 58.148438 48.035156 58.148438 C 49.925781 58.148438 51.628906 56.757812 53.050781 54.519531 C 53.136719 54.378906 53.222656 54.234375 53.3125 54.089844 C 51.628906 53.472656 49.84375 52.585938 48.035156 51.457031 C 46.222656 52.585938 44.441406 53.472656 42.757812 54.089844 Z M 33.128906 45.730469 C 33.085938 45.894531 33.046875 46.058594 33.011719 46.21875 C 32.429688 48.804688 32.652344 50.992188 33.988281 52.328125 C 35.328125 53.667969 37.511719 53.890625 40.101562 53.308594 C 40.261719 53.273438 40.425781 53.234375 40.589844 53.191406 C 39.835938 51.566406 39.199219 49.679688 38.722656 47.597656 C 36.640625 47.117188 34.753906 46.484375 33.128906 45.730469 Z M 38.382812 30.597656 C 36.601562 31.050781 34.980469 31.621094 33.574219 32.296875 C 34.09375 33.761719 34.832031 35.3125 35.777344 36.894531 C 36.421875 35.957031 37.132812 35.019531 37.902344 34.089844 C 38.015625 32.886719 38.179688 31.71875 38.382812 30.597656 Z M 35.777344 39.675781 C 34.832031 41.253906 34.09375 42.804688 33.574219 44.273438 C 34.980469 44.945312 36.601562 45.519531 38.382812 45.96875 C 38.179688 44.851562 38.015625 43.683594 37.902344 42.480469 C 37.132812 41.550781 36.421875 40.609375 35.777344 39.675781 Z M 46.644531 26.027344 C 45.0625 25.082031 43.511719 24.34375 42.046875 23.824219 C 41.371094 25.230469 40.800781 26.851562 40.347656 28.632812 C 41.46875 28.429688 42.636719 28.265625 43.839844 28.152344 C 44.769531 27.382812 45.707031 26.671875 46.644531 26.027344 Z M 55.71875 28.632812 C 55.269531 26.851562 54.695312 25.230469 54.023438 23.824219 C 52.554688 24.34375 51.003906 25.082031 49.425781 26.027344 C 50.359375 26.671875 51.300781 27.382812 52.230469 28.152344 C 53.433594 28.265625 54.601562 28.429688 55.71875 28.632812 Z M 60.292969 36.894531 C 61.234375 35.3125 61.976562 33.761719 62.496094 32.296875 C 61.089844 31.621094 59.46875 31.050781 57.683594 30.597656 C 57.890625 31.71875 58.050781 32.886719 58.164062 34.089844 C 58.9375 35.019531 59.644531 35.957031 60.292969 36.894531 Z M 57.683594 45.96875 C 59.46875 45.519531 61.089844 44.945312 62.496094 44.273438 C 61.976562 42.804688 61.234375 41.253906 60.292969 39.675781 C 59.644531 40.609375 58.9375 41.550781 58.164062 42.480469 C 58.050781 43.683594 57.890625 44.851562 57.683594 45.96875 Z M 49.425781 50.542969 C 51.003906 51.484375 52.554688 52.226562 54.023438 52.746094 C 54.695312 51.339844 55.269531 49.71875 55.71875 47.933594 C 54.601562 48.140625 53.433594 48.300781 52.230469 48.414062 C 51.300781 49.1875 50.359375 49.894531 49.425781 50.542969 Z M 40.347656 47.933594 C 40.800781 49.71875 41.371094 51.339844 42.046875 52.746094 C 43.511719 52.226562 45.0625 51.484375 46.644531 50.542969 C 45.707031 49.894531 44.769531 49.1875 43.839844 48.414062 C 42.636719 48.300781 41.46875 48.140625 40.347656 47.933594 Z M 37.734375 36.75 C 37.351562 37.261719 36.992188 37.773438 36.652344 38.285156 C 36.992188 38.796875 37.351562 39.308594 37.734375 39.820312 C 37.714844 39.3125 37.707031 38.800781 37.707031 38.285156 C 37.707031 37.769531 37.714844 37.253906 37.734375 36.75 Z M 39.988281 30.238281 C 39.867188 30.839844 39.757812 31.457031 39.664062 32.085938 C 40.011719 31.714844 40.367188 31.347656 40.730469 30.980469 C 41.097656 30.617188 41.464844 30.261719 41.835938 29.914062 C 41.207031 30.007812 40.589844 30.117188 39.988281 30.238281 Z M 39.664062 44.484375 C 39.757812 45.113281 39.867188 45.730469 39.988281 46.332031 C 40.589844 46.453125 41.207031 46.5625 41.835938 46.65625 C 41.464844 46.308594 41.097656 45.953125 40.730469 45.585938 C 40.367188 45.222656 40.011719 44.851562 39.664062 44.484375 Z M 48.035156 26.902344 C 47.523438 27.242188 47.011719 27.601562 46.5 27.984375 C 47.003906 27.964844 47.519531 27.957031 48.035156 27.957031 C 48.550781 27.957031 49.0625 27.964844 49.570312 27.984375 C 49.058594 27.601562 48.546875 27.242188 48.035156 26.902344 Z M 56.082031 30.238281 C 55.480469 30.117188 54.863281 30.007812 54.234375 29.914062 C 54.601562 30.261719 54.972656 30.617188 55.335938 30.980469 C 55.703125 31.347656 56.058594 31.714844 56.40625 32.085938 C 56.3125 31.457031 56.203125 30.839844 56.082031 30.238281 Z M 59.414062 38.285156 C 59.074219 37.773438 58.714844 37.261719 58.335938 36.75 C 58.351562 37.253906 58.363281 37.769531 58.363281 38.285156 C 58.363281 38.800781 58.351562 39.3125 58.335938 39.820312 C 58.714844 39.308594 59.074219 38.796875 59.414062 38.285156 Z M 56.082031 46.332031 C 56.203125 45.730469 56.3125 45.113281 56.40625 44.484375 C 56.058594 44.851562 55.703125 45.222656 55.335938 45.585938 C 54.972656 45.953125 54.601562 46.308594 54.234375 46.65625 C 54.863281 46.5625 55.480469 46.453125 56.082031 46.332031 Z M 48.035156 49.664062 C 48.546875 49.324219 49.058594 48.964844 49.570312 48.585938 C 49.0625 48.601562 48.550781 48.613281 48.035156 48.613281 C 47.519531 48.613281 47.003906 48.601562 46.5 48.585938 C 47.011719 48.964844 47.523438 49.324219 48.035156 49.664062 Z M 44.78125 39.804688 L 43.652344 42.570312 L 42.289062 42.015625 L 45.574219 33.957031 L 46.9375 33.957031 L 50.222656 42.015625 L 48.859375 42.570312 L 47.730469 39.804688 Z M 47.128906 38.332031 L 46.253906 36.183594 L 45.378906 38.332031 Z M 50.980469 33.835938 L 52.453125 33.835938 L 52.453125 42.421875 L 50.980469 42.421875 Z M 50.980469 33.835938 " fill-opacity="1" fill-rule="evenodd"/></g><g fill="#302e68" fill-opacity="1"><g transform="translate(13.229157, 47.779764)"><g><path d="M -0.15625 2.125 C -0.175781 1.070312 0.304688 0.429688 1.296875 0.203125 C 1.421875 0.171875 1.535156 0.164062 1.640625 0.1875 C 1.742188 0.207031 1.828125 0.28125 1.890625 0.40625 C 1.941406 0.539062 1.941406 0.648438 1.890625 0.734375 C 1.847656 0.828125 1.769531 0.910156 1.65625 0.984375 C 1.613281 1.015625 1.554688 1.046875 1.484375 1.078125 C 1.421875 1.109375 1.363281 1.132812 1.3125 1.15625 C 1.144531 1.25 1.007812 1.375 0.90625 1.53125 C 0.8125 1.6875 0.75 1.859375 0.71875 2.046875 C 0.695312 2.234375 0.707031 2.421875 0.75 2.609375 C 0.800781 2.796875 0.890625 2.957031 1.015625 3.09375 C 1.109375 3.195312 1.207031 3.25 1.3125 3.25 C 1.414062 3.25 1.523438 3.210938 1.640625 3.140625 C 1.785156 3.046875 1.894531 2.925781 1.96875 2.78125 C 2.050781 2.644531 2.113281 2.476562 2.15625 2.28125 C 2.195312 2.09375 2.238281 1.898438 2.28125 1.703125 C 2.320312 1.503906 2.367188 1.304688 2.421875 1.109375 C 2.523438 0.765625 2.691406 0.484375 2.921875 0.265625 C 3.160156 0.0546875 3.429688 -0.0390625 3.734375 -0.03125 C 4.066406 -0.03125 4.363281 0.0351562 4.625 0.171875 C 4.894531 0.316406 5.113281 0.550781 5.28125 0.875 C 5.476562 1.257812 5.5625 1.644531 5.53125 2.03125 C 5.507812 2.414062 5.382812 2.757812 5.15625 3.0625 C 4.9375 3.363281 4.632812 3.597656 4.25 3.765625 C 4.039062 3.847656 3.875 3.878906 3.75 3.859375 C 3.632812 3.835938 3.539062 3.753906 3.46875 3.609375 C 3.40625 3.453125 3.414062 3.320312 3.5 3.21875 C 3.582031 3.125 3.6875 3.039062 3.8125 2.96875 C 3.875 2.945312 3.9375 2.921875 4 2.890625 C 4.0625 2.859375 4.117188 2.820312 4.171875 2.78125 C 4.347656 2.644531 4.472656 2.484375 4.546875 2.296875 C 4.628906 2.117188 4.65625 1.925781 4.625 1.71875 C 4.601562 1.519531 4.523438 1.332031 4.390625 1.15625 C 4.222656 0.945312 4.007812 0.859375 3.75 0.890625 C 3.613281 0.910156 3.507812 0.957031 3.4375 1.03125 C 3.363281 1.113281 3.3125 1.21875 3.28125 1.34375 C 3.238281 1.53125 3.195312 1.71875 3.15625 1.90625 C 3.113281 2.09375 3.078125 2.285156 3.046875 2.484375 C 2.921875 3.066406 2.617188 3.535156 2.140625 3.890625 C 1.921875 4.054688 1.679688 4.144531 1.421875 4.15625 C 1.171875 4.164062 0.925781 4.109375 0.6875 3.984375 C 0.457031 3.859375 0.273438 3.675781 0.140625 3.4375 C 0.0546875 3.269531 -0.0078125 3.070312 -0.0625 2.84375 C -0.113281 2.625 -0.144531 2.382812 -0.15625 2.125 Z M -0.15625 2.125 "/></g></g></g><g fill="#302e68" fill-opacity="1"><g transform="translate(13.677417, 53.86703)"><g><path d="M 1.46875 3.75 C 1.15625 3.59375 0.90625 3.398438 0.71875 3.171875 C 0.53125 2.941406 0.40625 2.695312 0.34375 2.4375 C 0.289062 2.175781 0.285156 1.921875 0.328125 1.671875 C 0.378906 1.421875 0.46875 1.179688 0.59375 0.953125 C 0.71875 0.722656 0.878906 0.523438 1.078125 0.359375 C 1.285156 0.179688 1.507812 0.0234375 1.75 -0.109375 C 1.988281 -0.242188 2.242188 -0.34375 2.515625 -0.40625 C 2.816406 -0.5 3.125 -0.578125 3.4375 -0.640625 C 3.75 -0.703125 4.054688 -0.757812 4.359375 -0.8125 C 4.421875 -0.820312 4.476562 -0.828125 4.53125 -0.828125 C 4.59375 -0.828125 4.648438 -0.832031 4.703125 -0.84375 C 4.828125 -0.84375 4.9375 -0.816406 5.03125 -0.765625 C 5.125 -0.710938 5.175781 -0.613281 5.1875 -0.46875 C 5.207031 -0.34375 5.1875 -0.238281 5.125 -0.15625 C 5.0625 -0.0703125 4.960938 -0.015625 4.828125 0.015625 C 4.585938 0.046875 4.359375 0.078125 4.140625 0.109375 C 3.929688 0.148438 3.707031 0.191406 3.46875 0.234375 C 2.84375 0.335938 2.273438 0.570312 1.765625 0.9375 C 1.554688 1.09375 1.398438 1.273438 1.296875 1.484375 C 1.203125 1.703125 1.179688 1.953125 1.234375 2.234375 C 1.273438 2.441406 1.398438 2.628906 1.609375 2.796875 C 1.828125 2.972656 2.070312 3.078125 2.34375 3.109375 C 2.695312 3.140625 3.054688 3.113281 3.421875 3.03125 C 3.703125 2.96875 3.972656 2.90625 4.234375 2.84375 C 4.503906 2.789062 4.773438 2.738281 5.046875 2.6875 C 5.109375 2.664062 5.179688 2.644531 5.265625 2.625 C 5.347656 2.613281 5.425781 2.609375 5.5 2.609375 C 5.625 2.597656 5.734375 2.617188 5.828125 2.671875 C 5.929688 2.722656 5.992188 2.816406 6.015625 2.953125 C 6.035156 3.085938 6.007812 3.191406 5.9375 3.265625 C 5.875 3.347656 5.785156 3.410156 5.671875 3.453125 C 5.472656 3.515625 5.28125 3.5625 5.09375 3.59375 C 4.90625 3.632812 4.722656 3.675781 4.546875 3.71875 C 4.242188 3.800781 3.9375 3.867188 3.625 3.921875 C 3.320312 3.972656 3.019531 4.003906 2.71875 4.015625 C 2.507812 4.003906 2.300781 3.984375 2.09375 3.953125 C 1.882812 3.921875 1.675781 3.851562 1.46875 3.75 Z M 1.46875 3.75 "/></g></g></g><g fill="#302e68" fill-opacity="1"><g transform="translate(15.371064, 60.191047)"><g><path d="M 0.203125 0.734375 C 0.117188 0.597656 0.0976562 0.472656 0.140625 0.359375 C 0.179688 0.253906 0.269531 0.175781 0.40625 0.125 C 0.632812 0 0.867188 -0.117188 1.109375 -0.234375 C 1.359375 -0.347656 1.597656 -0.460938 1.828125 -0.578125 C 1.921875 -0.628906 2.007812 -0.671875 2.09375 -0.703125 C 2.1875 -0.734375 2.285156 -0.769531 2.390625 -0.8125 L 2.375 -0.859375 L 4 -1.578125 C 4.164062 -1.648438 4.296875 -1.691406 4.390625 -1.703125 C 4.492188 -1.710938 4.59375 -1.6875 4.6875 -1.625 C 4.78125 -1.5625 4.878906 -1.460938 4.984375 -1.328125 C 5.160156 -1.066406 5.3125 -0.796875 5.4375 -0.515625 C 5.5625 -0.242188 5.660156 0.046875 5.734375 0.359375 C 5.878906 1.140625 5.609375 1.738281 4.921875 2.15625 C 4.367188 2.5 3.785156 2.4375 3.171875 1.96875 C 2.960938 1.8125 2.78125 1.632812 2.625 1.4375 C 2.46875 1.25 2.3125 1.050781 2.15625 0.84375 C 2.050781 0.695312 1.96875 0.59375 1.90625 0.53125 C 1.84375 0.476562 1.765625 0.460938 1.671875 0.484375 C 1.585938 0.503906 1.457031 0.550781 1.28125 0.625 C 1.195312 0.664062 1.113281 0.707031 1.03125 0.75 C 0.945312 0.789062 0.863281 0.828125 0.78125 0.859375 C 0.675781 0.921875 0.570312 0.945312 0.46875 0.9375 C 0.363281 0.925781 0.273438 0.859375 0.203125 0.734375 Z M 2.9375 -0.109375 C 2.863281 -0.078125 2.816406 -0.0351562 2.796875 0.015625 C 2.773438 0.078125 2.785156 0.144531 2.828125 0.21875 C 2.960938 0.445312 3.113281 0.664062 3.28125 0.875 C 3.457031 1.09375 3.671875 1.265625 3.921875 1.390625 C 4.085938 1.484375 4.226562 1.503906 4.34375 1.453125 C 4.46875 1.410156 4.585938 1.328125 4.703125 1.203125 C 4.835938 1.046875 4.894531 0.878906 4.875 0.703125 C 4.851562 0.535156 4.8125 0.363281 4.75 0.1875 C 4.632812 -0.101562 4.539062 -0.3125 4.46875 -0.4375 C 4.394531 -0.5625 4.320312 -0.628906 4.25 -0.640625 C 4.1875 -0.660156 4.097656 -0.640625 3.984375 -0.578125 C 3.867188 -0.523438 3.707031 -0.453125 3.5 -0.359375 C 3.40625 -0.316406 3.3125 -0.273438 3.21875 -0.234375 C 3.132812 -0.191406 3.039062 -0.148438 2.9375 -0.109375 Z M 2.9375 -0.109375 "/></g></g></g><g fill="#302e68" fill-opacity="1"><g transform="translate(17.831671, 65.482471)"><g><path d="M 0.21875 1.25 C 0.125 1.0625 0.0625 0.898438 0.03125 0.765625 C 0 0.640625 0.0078125 0.519531 0.0625 0.40625 C 0.125 0.300781 0.238281 0.179688 0.40625 0.046875 C 0.71875 -0.210938 1.039062 -0.460938 1.375 -0.703125 C 1.71875 -0.953125 2.078125 -1.171875 2.453125 -1.359375 C 2.703125 -1.492188 2.945312 -1.632812 3.1875 -1.78125 C 3.4375 -1.925781 3.6875 -2.066406 3.9375 -2.203125 C 4.101562 -2.285156 4.242188 -2.332031 4.359375 -2.34375 C 4.472656 -2.363281 4.578125 -2.34375 4.671875 -2.28125 C 4.765625 -2.226562 4.882812 -2.140625 5.03125 -2.015625 C 5.207031 -1.828125 5.367188 -1.617188 5.515625 -1.390625 C 5.671875 -1.171875 5.820312 -0.953125 5.96875 -0.734375 L 6.578125 0.171875 C 6.648438 0.285156 6.679688 0.398438 6.671875 0.515625 C 6.660156 0.628906 6.59375 0.734375 6.46875 0.828125 C 6.375 0.898438 6.269531 0.914062 6.15625 0.875 C 6.039062 0.84375 5.945312 0.78125 5.875 0.6875 C 5.71875 0.476562 5.5625 0.265625 5.40625 0.046875 C 5.257812 -0.171875 5.113281 -0.382812 4.96875 -0.59375 C 4.914062 -0.664062 4.863281 -0.738281 4.8125 -0.8125 C 4.769531 -0.894531 4.71875 -0.96875 4.65625 -1.03125 C 4.5625 -1.164062 4.484375 -1.253906 4.421875 -1.296875 C 4.367188 -1.347656 4.304688 -1.363281 4.234375 -1.34375 C 4.160156 -1.320312 4.054688 -1.269531 3.921875 -1.1875 C 3.691406 -1.050781 3.507812 -0.941406 3.375 -0.859375 C 3.238281 -0.773438 3.148438 -0.707031 3.109375 -0.65625 C 3.066406 -0.601562 3.0625 -0.535156 3.09375 -0.453125 C 3.125 -0.378906 3.175781 -0.289062 3.25 -0.1875 C 3.332031 -0.0820312 3.429688 0.0703125 3.546875 0.28125 C 3.617188 0.382812 3.691406 0.484375 3.765625 0.578125 C 3.835938 0.679688 3.90625 0.789062 3.96875 0.90625 C 4.15625 1.238281 4.132812 1.476562 3.90625 1.625 C 3.75 1.707031 3.613281 1.710938 3.5 1.640625 C 3.394531 1.566406 3.304688 1.46875 3.234375 1.34375 C 3.097656 1.175781 2.96875 0.992188 2.84375 0.796875 C 2.71875 0.609375 2.59375 0.421875 2.46875 0.234375 C 2.394531 0.0976562 2.304688 0.015625 2.203125 -0.015625 C 2.109375 -0.046875 1.992188 -0.0195312 1.859375 0.0625 C 1.785156 0.113281 1.710938 0.160156 1.640625 0.203125 C 1.460938 0.316406 1.328125 0.410156 1.234375 0.484375 C 1.140625 0.554688 1.082031 0.628906 1.0625 0.703125 C 1.050781 0.773438 1.078125 0.859375 1.140625 0.953125 C 1.210938 1.054688 1.3125 1.191406 1.4375 1.359375 C 1.570312 1.523438 1.703125 1.6875 1.828125 1.84375 C 1.960938 2.007812 2.09375 2.164062 2.21875 2.3125 C 2.457031 2.613281 2.46875 2.851562 2.25 3.03125 C 2.019531 3.21875 1.78125 3.171875 1.53125 2.890625 C 1.320312 2.617188 1.097656 2.347656 0.859375 2.078125 C 0.628906 1.816406 0.414062 1.539062 0.21875 1.25 Z M 0.21875 1.25 "/></g></g></g><g fill="#302e68" fill-opacity="1"><g transform="translate(21.338709, 70.518241)"><g><path d="M 0.25 0.96875 C 0.132812 0.875 0.0820312 0.769531 0.09375 0.65625 C 0.101562 0.550781 0.160156 0.441406 0.265625 0.328125 C 0.503906 0.0859375 0.738281 -0.148438 0.96875 -0.390625 C 1.207031 -0.640625 1.441406 -0.890625 1.671875 -1.140625 C 1.921875 -1.367188 2.164062 -1.59375 2.40625 -1.8125 C 2.644531 -2.03125 2.835938 -2.296875 2.984375 -2.609375 C 3.066406 -2.742188 3.175781 -2.820312 3.3125 -2.84375 C 3.445312 -2.863281 3.582031 -2.851562 3.71875 -2.8125 C 4.125 -2.664062 4.492188 -2.472656 4.828125 -2.234375 C 5.171875 -2.003906 5.441406 -1.691406 5.640625 -1.296875 C 5.785156 -0.984375 5.851562 -0.691406 5.84375 -0.421875 C 5.832031 -0.148438 5.765625 0.0859375 5.640625 0.296875 C 5.515625 0.515625 5.328125 0.679688 5.078125 0.796875 C 4.835938 0.921875 4.546875 0.972656 4.203125 0.953125 C 4.085938 0.953125 3.972656 0.941406 3.859375 0.921875 C 3.753906 0.898438 3.632812 0.894531 3.5 0.90625 C 3.476562 1.175781 3.460938 1.441406 3.453125 1.703125 C 3.441406 1.960938 3.429688 2.222656 3.421875 2.484375 C 3.421875 2.640625 3.398438 2.769531 3.359375 2.875 C 3.316406 2.988281 3.207031 3.066406 3.03125 3.109375 C 2.914062 3.128906 2.804688 3.085938 2.703125 2.984375 C 2.609375 2.890625 2.550781 2.753906 2.53125 2.578125 C 2.53125 2.378906 2.523438 2.175781 2.515625 1.96875 C 2.515625 1.757812 2.507812 1.554688 2.5 1.359375 C 2.507812 1.222656 2.515625 1.09375 2.515625 0.96875 C 2.515625 0.84375 2.507812 0.71875 2.5 0.59375 C 2.488281 0.425781 2.425781 0.304688 2.3125 0.234375 C 2.195312 0.171875 2.082031 0.101562 1.96875 0.03125 C 1.90625 0 1.847656 -0.00390625 1.796875 0.015625 C 1.742188 0.046875 1.695312 0.0859375 1.65625 0.140625 C 1.613281 0.191406 1.570312 0.238281 1.53125 0.28125 C 1.40625 0.382812 1.289062 0.492188 1.1875 0.609375 C 1.082031 0.734375 0.96875 0.84375 0.84375 0.9375 C 0.75 1.019531 0.648438 1.070312 0.546875 1.09375 C 0.441406 1.125 0.34375 1.082031 0.25 0.96875 Z M 3.15625 -1.296875 C 3.113281 -1.253906 3.066406 -1.207031 3.015625 -1.15625 C 2.960938 -1.101562 2.914062 -1.054688 2.875 -1.015625 C 2.726562 -0.867188 2.65625 -0.753906 2.65625 -0.671875 C 2.664062 -0.597656 2.75 -0.515625 2.90625 -0.421875 C 3.125 -0.285156 3.335938 -0.171875 3.546875 -0.078125 C 3.765625 0.015625 3.992188 0.0625 4.234375 0.0625 C 4.554688 0.0820312 4.769531 0.0078125 4.875 -0.15625 C 4.988281 -0.320312 4.976562 -0.546875 4.84375 -0.828125 C 4.8125 -0.921875 4.769531 -1.003906 4.71875 -1.078125 C 4.664062 -1.148438 4.613281 -1.21875 4.5625 -1.28125 C 4.375 -1.476562 4.210938 -1.613281 4.078125 -1.6875 C 3.941406 -1.757812 3.804688 -1.765625 3.671875 -1.703125 C 3.535156 -1.640625 3.363281 -1.503906 3.15625 -1.296875 Z M 3.15625 -1.296875 "/></g></g></g><g fill="#302e68" fill-opacity="1"><g transform="translate(25.787051, 74.865417)"><g/></g></g><g fill="#302e68" fill-opacity="1"><g transform="translate(28.762251, 77.162193)"><g><path d="M 3.625 2.21875 C 3.488281 2.164062 3.398438 2.082031 3.359375 1.96875 C 3.316406 1.863281 3.328125 1.757812 3.390625 1.65625 C 3.492188 1.40625 3.597656 1.160156 3.703125 0.921875 C 3.804688 0.691406 3.914062 0.457031 4.03125 0.21875 C 4.113281 0.03125 4.164062 -0.0976562 4.1875 -0.171875 C 4.21875 -0.242188 4.203125 -0.304688 4.140625 -0.359375 C 4.078125 -0.410156 3.953125 -0.484375 3.765625 -0.578125 L 2.4375 -1.265625 C 2.3125 -1.316406 2.207031 -1.332031 2.125 -1.3125 C 2.050781 -1.289062 1.984375 -1.21875 1.921875 -1.09375 C 1.796875 -0.863281 1.671875 -0.640625 1.546875 -0.421875 C 1.421875 -0.203125 1.300781 0.03125 1.1875 0.28125 C 1.132812 0.394531 1.0625 0.472656 0.96875 0.515625 C 0.882812 0.566406 0.769531 0.566406 0.625 0.515625 C 0.488281 0.460938 0.40625 0.378906 0.375 0.265625 C 0.351562 0.148438 0.363281 0.0234375 0.40625 -0.109375 C 0.425781 -0.148438 0.445312 -0.191406 0.46875 -0.234375 C 0.488281 -0.273438 0.507812 -0.3125 0.53125 -0.34375 L 1.546875 -2.375 L 1.53125 -2.375 L 2.40625 -3.921875 L 2.609375 -4.265625 C 2.671875 -4.378906 2.75 -4.457031 2.84375 -4.5 C 2.9375 -4.550781 3.046875 -4.546875 3.171875 -4.484375 C 3.328125 -4.421875 3.414062 -4.328125 3.4375 -4.203125 C 3.457031 -4.078125 3.4375 -3.953125 3.375 -3.828125 C 3.28125 -3.640625 3.179688 -3.453125 3.078125 -3.265625 C 2.972656 -3.078125 2.867188 -2.890625 2.765625 -2.703125 C 2.691406 -2.523438 2.640625 -2.394531 2.609375 -2.3125 C 2.585938 -2.238281 2.609375 -2.179688 2.671875 -2.140625 C 2.734375 -2.097656 2.847656 -2.03125 3.015625 -1.9375 C 3.253906 -1.820312 3.488281 -1.707031 3.71875 -1.59375 C 3.945312 -1.488281 4.164062 -1.378906 4.375 -1.265625 C 4.632812 -1.140625 4.8125 -1.195312 4.90625 -1.4375 C 5.0625 -1.78125 5.222656 -2.113281 5.390625 -2.4375 C 5.429688 -2.519531 5.476562 -2.597656 5.53125 -2.671875 C 5.582031 -2.742188 5.644531 -2.804688 5.71875 -2.859375 C 5.894531 -2.972656 6.066406 -2.984375 6.234375 -2.890625 C 6.367188 -2.785156 6.425781 -2.632812 6.40625 -2.4375 C 6.394531 -2.40625 6.378906 -2.375 6.359375 -2.34375 C 6.347656 -2.320312 6.335938 -2.296875 6.328125 -2.265625 C 5.972656 -1.566406 5.613281 -0.878906 5.25 -0.203125 C 4.882812 0.472656 4.550781 1.175781 4.25 1.90625 C 4.226562 1.9375 4.207031 1.976562 4.1875 2.03125 C 4.101562 2.132812 4.019531 2.207031 3.9375 2.25 C 3.851562 2.289062 3.75 2.28125 3.625 2.21875 Z M 3.625 2.21875 "/></g></g></g><g fill="#302e68" fill-opacity="1"><g transform="translate(34.528844, 80.23233)"><g><path d="M 0.9375 0.84375 C 0.738281 0.757812 0.585938 0.675781 0.484375 0.59375 C 0.378906 0.507812 0.316406 0.40625 0.296875 0.28125 C 0.285156 0.15625 0.304688 -0.00390625 0.359375 -0.203125 C 0.441406 -0.609375 0.539062 -1.007812 0.65625 -1.40625 C 0.78125 -1.800781 0.9375 -2.1875 1.125 -2.5625 C 1.238281 -2.820312 1.347656 -3.085938 1.453125 -3.359375 C 1.554688 -3.628906 1.671875 -3.890625 1.796875 -4.140625 C 1.878906 -4.304688 1.957031 -4.429688 2.03125 -4.515625 C 2.113281 -4.597656 2.210938 -4.644531 2.328125 -4.65625 C 2.441406 -4.675781 2.585938 -4.671875 2.765625 -4.640625 C 3.035156 -4.609375 3.296875 -4.546875 3.546875 -4.453125 C 3.796875 -4.367188 4.046875 -4.289062 4.296875 -4.21875 L 5.328125 -3.859375 C 5.453125 -3.816406 5.546875 -3.742188 5.609375 -3.640625 C 5.671875 -3.546875 5.675781 -3.425781 5.625 -3.28125 C 5.59375 -3.15625 5.519531 -3.070312 5.40625 -3.03125 C 5.300781 -3 5.195312 -2.992188 5.09375 -3.015625 C 4.832031 -3.085938 4.578125 -3.164062 4.328125 -3.25 C 4.078125 -3.332031 3.832031 -3.410156 3.59375 -3.484375 C 3.507812 -3.515625 3.425781 -3.539062 3.34375 -3.5625 C 3.257812 -3.59375 3.164062 -3.617188 3.0625 -3.640625 C 2.914062 -3.679688 2.804688 -3.707031 2.734375 -3.71875 C 2.660156 -3.726562 2.597656 -3.703125 2.546875 -3.640625 C 2.492188 -3.578125 2.441406 -3.472656 2.390625 -3.328125 C 2.296875 -3.085938 2.21875 -2.890625 2.15625 -2.734375 C 2.101562 -2.585938 2.078125 -2.476562 2.078125 -2.40625 C 2.078125 -2.34375 2.109375 -2.289062 2.171875 -2.25 C 2.242188 -2.207031 2.34375 -2.164062 2.46875 -2.125 C 2.601562 -2.082031 2.773438 -2.019531 2.984375 -1.9375 C 3.109375 -1.894531 3.226562 -1.851562 3.34375 -1.8125 C 3.457031 -1.78125 3.578125 -1.738281 3.703125 -1.6875 C 4.054688 -1.539062 4.179688 -1.34375 4.078125 -1.09375 C 4.015625 -0.925781 3.914062 -0.835938 3.78125 -0.828125 C 3.65625 -0.828125 3.523438 -0.847656 3.390625 -0.890625 C 3.179688 -0.953125 2.96875 -1.019531 2.75 -1.09375 C 2.53125 -1.164062 2.316406 -1.242188 2.109375 -1.328125 C 1.960938 -1.378906 1.835938 -1.390625 1.734375 -1.359375 C 1.640625 -1.328125 1.566406 -1.234375 1.515625 -1.078125 C 1.484375 -0.992188 1.445312 -0.914062 1.40625 -0.84375 C 1.34375 -0.644531 1.296875 -0.484375 1.265625 -0.359375 C 1.234375 -0.242188 1.234375 -0.15625 1.265625 -0.09375 C 1.304688 -0.03125 1.378906 0.0195312 1.484375 0.0625 C 1.597656 0.101562 1.757812 0.15625 1.96875 0.21875 C 2.175781 0.257812 2.378906 0.300781 2.578125 0.34375 C 2.773438 0.394531 2.972656 0.441406 3.171875 0.484375 C 3.546875 0.578125 3.695312 0.765625 3.625 1.046875 C 3.5625 1.335938 3.34375 1.441406 2.96875 1.359375 C 2.625 1.273438 2.28125 1.195312 1.9375 1.125 C 1.601562 1.050781 1.269531 0.957031 0.9375 0.84375 Z M 0.9375 0.84375 "/></g></g></g><g fill="#302e68" fill-opacity="1"><g transform="translate(40.37542, 82.104145)"><g><path d="M 1.203125 0.328125 C 0.941406 0.273438 0.738281 0.207031 0.59375 0.125 C 0.457031 0.0507812 0.367188 -0.0625 0.328125 -0.21875 C 0.296875 -0.382812 0.296875 -0.59375 0.328125 -0.84375 C 0.421875 -1.46875 0.503906 -2.09375 0.578125 -2.71875 C 0.660156 -3.351562 0.789062 -3.984375 0.96875 -4.609375 C 0.988281 -4.660156 1.007812 -4.71875 1.03125 -4.78125 C 1.050781 -4.851562 1.070312 -4.921875 1.09375 -4.984375 C 1.125 -5.097656 1.179688 -5.179688 1.265625 -5.234375 C 1.347656 -5.285156 1.441406 -5.296875 1.546875 -5.265625 C 1.671875 -5.234375 1.757812 -5.175781 1.8125 -5.09375 C 1.875 -5.007812 1.894531 -4.914062 1.875 -4.8125 C 1.863281 -4.65625 1.84375 -4.503906 1.8125 -4.359375 C 1.789062 -4.222656 1.765625 -4.082031 1.734375 -3.9375 C 1.703125 -3.757812 1.664062 -3.578125 1.625 -3.390625 C 1.582031 -3.210938 1.546875 -3.039062 1.515625 -2.875 L 1.546875 -2.859375 C 1.492188 -2.554688 1.445312 -2.253906 1.40625 -1.953125 C 1.363281 -1.648438 1.316406 -1.34375 1.265625 -1.03125 C 1.234375 -0.863281 1.25 -0.734375 1.3125 -0.640625 C 1.375 -0.554688 1.488281 -0.507812 1.65625 -0.5 C 2 -0.457031 2.347656 -0.410156 2.703125 -0.359375 C 3.054688 -0.316406 3.40625 -0.273438 3.75 -0.234375 C 3.8125 -0.234375 3.878906 -0.226562 3.953125 -0.21875 C 4.023438 -0.21875 4.09375 -0.210938 4.15625 -0.203125 C 4.269531 -0.179688 4.359375 -0.132812 4.421875 -0.0625 C 4.492188 0.0078125 4.519531 0.109375 4.5 0.234375 C 4.5 0.347656 4.457031 0.4375 4.375 0.5 C 4.300781 0.570312 4.210938 0.613281 4.109375 0.625 C 3.984375 0.632812 3.851562 0.640625 3.71875 0.640625 C 3.59375 0.640625 3.46875 0.628906 3.34375 0.609375 C 3 0.566406 2.644531 0.519531 2.28125 0.46875 C 1.925781 0.425781 1.566406 0.378906 1.203125 0.328125 Z M 1.203125 0.328125 "/></g></g></g><g fill="#302e68" fill-opacity="1"><g transform="translate(46.678989, 82.902641)"><g><path d="M 0.75 0.09375 C 0.59375 0.113281 0.472656 0.0820312 0.390625 0 C 0.304688 -0.0703125 0.265625 -0.179688 0.265625 -0.328125 C 0.234375 -0.585938 0.210938 -0.847656 0.203125 -1.109375 C 0.191406 -1.378906 0.175781 -1.644531 0.15625 -1.90625 C 0.144531 -2.007812 0.140625 -2.109375 0.140625 -2.203125 C 0.148438 -2.304688 0.148438 -2.410156 0.140625 -2.515625 L 0.09375 -2.515625 L 0.0625 -4.296875 C 0.0507812 -4.472656 0.0625 -4.609375 0.09375 -4.703125 C 0.125 -4.804688 0.1875 -4.890625 0.28125 -4.953125 C 0.375 -5.015625 0.503906 -5.066406 0.671875 -5.109375 C 0.972656 -5.179688 1.273438 -5.222656 1.578125 -5.234375 C 1.878906 -5.242188 2.191406 -5.222656 2.515625 -5.171875 C 3.285156 -5.003906 3.738281 -4.53125 3.875 -3.75 C 3.976562 -3.09375 3.691406 -2.566406 3.015625 -2.171875 C 2.796875 -2.046875 2.566406 -1.945312 2.328125 -1.875 C 2.097656 -1.800781 1.859375 -1.734375 1.609375 -1.671875 C 1.421875 -1.628906 1.289062 -1.59375 1.21875 -1.5625 C 1.144531 -1.53125 1.097656 -1.46875 1.078125 -1.375 C 1.066406 -1.289062 1.066406 -1.148438 1.078125 -0.953125 C 1.078125 -0.859375 1.078125 -0.765625 1.078125 -0.671875 C 1.085938 -0.585938 1.09375 -0.5 1.09375 -0.40625 C 1.113281 -0.28125 1.097656 -0.164062 1.046875 -0.0625 C 0.992188 0.03125 0.894531 0.0820312 0.75 0.09375 Z M 1.015625 -2.765625 C 1.015625 -2.679688 1.035156 -2.617188 1.078125 -2.578125 C 1.117188 -2.535156 1.179688 -2.519531 1.265625 -2.53125 C 1.535156 -2.582031 1.800781 -2.644531 2.0625 -2.71875 C 2.320312 -2.800781 2.5625 -2.925781 2.78125 -3.09375 C 2.914062 -3.207031 2.988281 -3.328125 3 -3.453125 C 3.007812 -3.585938 2.972656 -3.726562 2.890625 -3.875 C 2.796875 -4.070312 2.664062 -4.191406 2.5 -4.234375 C 2.34375 -4.285156 2.171875 -4.316406 1.984375 -4.328125 C 1.671875 -4.328125 1.441406 -4.316406 1.296875 -4.296875 C 1.148438 -4.285156 1.054688 -4.25 1.015625 -4.1875 C 0.984375 -4.132812 0.972656 -4.039062 0.984375 -3.90625 C 0.992188 -3.78125 1 -3.601562 1 -3.375 C 1 -3.269531 1 -3.164062 1 -3.0625 C 1.007812 -2.96875 1.015625 -2.867188 1.015625 -2.765625 Z M 1.015625 -2.765625 "/></g></g></g><g fill="#302e68" fill-opacity="1"><g transform="translate(52.508836, 82.636354)"><g><path d="M 1.234375 0.265625 C 1.023438 0.285156 0.851562 0.285156 0.71875 0.265625 C 0.582031 0.242188 0.476562 0.179688 0.40625 0.078125 C 0.332031 -0.015625 0.265625 -0.160156 0.203125 -0.359375 C 0.0859375 -0.753906 -0.0195312 -1.148438 -0.125 -1.546875 C -0.226562 -1.953125 -0.296875 -2.367188 -0.328125 -2.796875 C -0.347656 -3.066406 -0.378906 -3.34375 -0.421875 -3.625 C -0.472656 -3.914062 -0.507812 -4.203125 -0.53125 -4.484375 C -0.539062 -4.671875 -0.535156 -4.816406 -0.515625 -4.921875 C -0.492188 -5.035156 -0.4375 -5.125 -0.34375 -5.1875 C -0.25 -5.257812 -0.117188 -5.335938 0.046875 -5.421875 C 0.285156 -5.503906 0.535156 -5.570312 0.796875 -5.625 C 1.054688 -5.675781 1.316406 -5.734375 1.578125 -5.796875 L 2.640625 -6.015625 C 2.773438 -6.035156 2.894531 -6.019531 3 -5.96875 C 3.113281 -5.925781 3.1875 -5.828125 3.21875 -5.671875 C 3.25 -5.546875 3.222656 -5.4375 3.140625 -5.34375 C 3.066406 -5.25 2.972656 -5.191406 2.859375 -5.171875 C 2.609375 -5.109375 2.351562 -5.050781 2.09375 -5 C 1.832031 -4.945312 1.582031 -4.890625 1.34375 -4.828125 C 1.25 -4.804688 1.160156 -4.785156 1.078125 -4.765625 C 0.992188 -4.753906 0.90625 -4.734375 0.8125 -4.703125 C 0.65625 -4.660156 0.539062 -4.625 0.46875 -4.59375 C 0.40625 -4.5625 0.367188 -4.507812 0.359375 -4.4375 C 0.347656 -4.363281 0.359375 -4.25 0.390625 -4.09375 C 0.429688 -3.820312 0.460938 -3.609375 0.484375 -3.453125 C 0.515625 -3.296875 0.546875 -3.1875 0.578125 -3.125 C 0.617188 -3.070312 0.675781 -3.046875 0.75 -3.046875 C 0.820312 -3.046875 0.925781 -3.0625 1.0625 -3.09375 C 1.195312 -3.125 1.375 -3.15625 1.59375 -3.1875 C 1.71875 -3.207031 1.84375 -3.234375 1.96875 -3.265625 C 2.09375 -3.296875 2.210938 -3.316406 2.328125 -3.328125 C 2.722656 -3.390625 2.941406 -3.273438 2.984375 -2.984375 C 3.003906 -2.804688 2.957031 -2.6875 2.84375 -2.625 C 2.738281 -2.5625 2.613281 -2.515625 2.46875 -2.484375 C 2.257812 -2.429688 2.039062 -2.378906 1.8125 -2.328125 C 1.59375 -2.285156 1.367188 -2.242188 1.140625 -2.203125 C 0.992188 -2.179688 0.882812 -2.128906 0.8125 -2.046875 C 0.75 -1.972656 0.734375 -1.851562 0.765625 -1.6875 C 0.785156 -1.601562 0.796875 -1.515625 0.796875 -1.421875 C 0.835938 -1.222656 0.875 -1.066406 0.90625 -0.953125 C 0.945312 -0.835938 0.992188 -0.757812 1.046875 -0.71875 C 1.109375 -0.6875 1.195312 -0.675781 1.3125 -0.6875 C 1.4375 -0.707031 1.601562 -0.75 1.8125 -0.8125 C 2.007812 -0.875 2.207031 -0.929688 2.40625 -0.984375 C 2.601562 -1.046875 2.796875 -1.109375 2.984375 -1.171875 C 3.347656 -1.273438 3.566406 -1.195312 3.640625 -0.9375 C 3.734375 -0.632812 3.609375 -0.425781 3.265625 -0.3125 C 2.921875 -0.21875 2.582031 -0.113281 2.25 0 C 1.914062 0.101562 1.578125 0.191406 1.234375 0.265625 Z M 1.234375 0.265625 "/></g></g></g><g fill="#302e68" fill-opacity="1"><g transform="translate(58.49916, 81.304344)"><g><path d="M 1 0.15625 C 0.863281 0.21875 0.742188 0.222656 0.640625 0.171875 C 0.546875 0.117188 0.46875 0.0234375 0.40625 -0.109375 C 0.269531 -0.429688 0.132812 -0.742188 0 -1.046875 C -0.144531 -1.359375 -0.285156 -1.671875 -0.421875 -1.984375 C -0.546875 -2.296875 -0.664062 -2.601562 -0.78125 -2.90625 C -0.894531 -3.21875 -1.0625 -3.5 -1.28125 -3.75 C -1.375 -3.875 -1.40625 -4.003906 -1.375 -4.140625 C -1.34375 -4.273438 -1.273438 -4.394531 -1.171875 -4.5 C -0.890625 -4.820312 -0.578125 -5.09375 -0.234375 -5.3125 C 0.109375 -5.539062 0.503906 -5.671875 0.953125 -5.703125 C 1.285156 -5.734375 1.578125 -5.6875 1.828125 -5.5625 C 2.078125 -5.445312 2.273438 -5.289062 2.421875 -5.09375 C 2.566406 -4.894531 2.644531 -4.660156 2.65625 -4.390625 C 2.675781 -4.117188 2.613281 -3.828125 2.46875 -3.515625 C 2.4375 -3.421875 2.390625 -3.320312 2.328125 -3.21875 C 2.265625 -3.125 2.203125 -3.019531 2.140625 -2.90625 C 2.390625 -2.78125 2.632812 -2.660156 2.875 -2.546875 C 3.125 -2.429688 3.363281 -2.320312 3.59375 -2.21875 C 3.738281 -2.15625 3.851562 -2.082031 3.9375 -2 C 4.03125 -1.925781 4.0625 -1.804688 4.03125 -1.640625 C 4.007812 -1.503906 3.929688 -1.410156 3.796875 -1.359375 C 3.671875 -1.316406 3.519531 -1.316406 3.34375 -1.359375 C 3.15625 -1.429688 2.960938 -1.503906 2.765625 -1.578125 C 2.578125 -1.660156 2.394531 -1.738281 2.21875 -1.8125 C 2.09375 -1.851562 1.972656 -1.898438 1.859375 -1.953125 C 1.742188 -2.003906 1.625 -2.050781 1.5 -2.09375 C 1.332031 -2.144531 1.195312 -2.128906 1.09375 -2.046875 C 0.988281 -1.972656 0.882812 -1.894531 0.78125 -1.8125 C 0.71875 -1.757812 0.691406 -1.703125 0.703125 -1.640625 C 0.710938 -1.585938 0.734375 -1.535156 0.765625 -1.484375 C 0.796875 -1.429688 0.820312 -1.375 0.84375 -1.3125 C 0.882812 -1.15625 0.941406 -1.003906 1.015625 -0.859375 C 1.085938 -0.710938 1.144531 -0.566406 1.1875 -0.421875 C 1.226562 -0.304688 1.238281 -0.195312 1.21875 -0.09375 C 1.207031 0.0078125 1.132812 0.09375 1 0.15625 Z M -0.015625 -3.421875 C 0.015625 -3.359375 0.0390625 -3.289062 0.0625 -3.21875 C 0.09375 -3.15625 0.117188 -3.097656 0.140625 -3.046875 C 0.222656 -2.859375 0.300781 -2.75 0.375 -2.71875 C 0.457031 -2.695312 0.570312 -2.738281 0.71875 -2.84375 C 0.925781 -3 1.109375 -3.160156 1.265625 -3.328125 C 1.429688 -3.492188 1.566406 -3.6875 1.671875 -3.90625 C 1.804688 -4.1875 1.816406 -4.410156 1.703125 -4.578125 C 1.597656 -4.742188 1.394531 -4.820312 1.09375 -4.8125 C 0.976562 -4.800781 0.878906 -4.785156 0.796875 -4.765625 C 0.710938 -4.753906 0.628906 -4.734375 0.546875 -4.703125 C 0.285156 -4.597656 0.0976562 -4.5 -0.015625 -4.40625 C -0.140625 -4.3125 -0.191406 -4.1875 -0.171875 -4.03125 C -0.160156 -3.882812 -0.109375 -3.679688 -0.015625 -3.421875 Z M -0.015625 -3.421875 "/></g></g></g><g fill="#302e68" fill-opacity="1"><g transform="translate(64.209494, 78.8394)"><g/></g></g><g fill="#302e68" fill-opacity="1"><g transform="translate(67.483081, 76.96246)"><g><path d="M 3.703125 -2.9375 C 3.640625 -2.851562 3.566406 -2.796875 3.484375 -2.765625 C 3.398438 -2.734375 3.3125 -2.738281 3.21875 -2.78125 C 3.0625 -2.84375 2.898438 -2.910156 2.734375 -2.984375 C 2.566406 -3.066406 2.40625 -3.148438 2.25 -3.234375 C 2.082031 -3.328125 1.925781 -3.363281 1.78125 -3.34375 C 1.644531 -3.332031 1.519531 -3.253906 1.40625 -3.109375 C 1.351562 -3.066406 1.300781 -3.019531 1.25 -2.96875 C 1.207031 -2.925781 1.160156 -2.878906 1.109375 -2.828125 C 0.878906 -2.671875 0.695312 -2.5 0.5625 -2.3125 C 0.4375 -2.125 0.363281 -1.914062 0.34375 -1.6875 C 0.332031 -1.46875 0.410156 -1.21875 0.578125 -0.9375 C 0.628906 -0.8125 0.640625 -0.691406 0.609375 -0.578125 C 0.585938 -0.460938 0.5 -0.375 0.34375 -0.3125 C 0.238281 -0.25 0.125 -0.242188 0 -0.296875 C -0.125 -0.359375 -0.207031 -0.484375 -0.25 -0.671875 C -0.40625 -1.128906 -0.550781 -1.585938 -0.6875 -2.046875 C -0.820312 -2.515625 -0.960938 -2.984375 -1.109375 -3.453125 C -1.179688 -3.734375 -1.253906 -4.007812 -1.328125 -4.28125 C -1.410156 -4.550781 -1.507812 -4.816406 -1.625 -5.078125 C -1.6875 -5.191406 -1.71875 -5.3125 -1.71875 -5.4375 C -1.726562 -5.5625 -1.679688 -5.675781 -1.578125 -5.78125 C -1.460938 -5.875 -1.34375 -5.910156 -1.21875 -5.890625 C -1.101562 -5.878906 -0.984375 -5.84375 -0.859375 -5.78125 C -0.285156 -5.488281 0.289062 -5.195312 0.875 -4.90625 C 1.457031 -4.613281 2.03125 -4.328125 2.59375 -4.046875 C 2.726562 -3.984375 2.851562 -3.914062 2.96875 -3.84375 C 3.09375 -3.78125 3.21875 -3.722656 3.34375 -3.671875 C 3.394531 -3.628906 3.445312 -3.59375 3.5 -3.5625 C 3.5625 -3.539062 3.601562 -3.515625 3.625 -3.484375 C 3.78125 -3.285156 3.804688 -3.101562 3.703125 -2.9375 Z M -0.015625 -3.0625 C 0.128906 -3.132812 0.257812 -3.226562 0.375 -3.34375 C 0.488281 -3.457031 0.597656 -3.578125 0.703125 -3.703125 C 0.765625 -3.742188 0.796875 -3.789062 0.796875 -3.84375 C 0.796875 -3.90625 0.753906 -3.957031 0.671875 -4 C 0.492188 -4.09375 0.320312 -4.179688 0.15625 -4.265625 C -0.0078125 -4.359375 -0.195312 -4.429688 -0.40625 -4.484375 C -0.363281 -3.984375 -0.234375 -3.507812 -0.015625 -3.0625 Z M -0.015625 -3.0625 "/></g></g></g><g fill="#302e68" fill-opacity="1"><g transform="translate(72.931857, 72.511353)"><g><path d="M 2.890625 -3.71875 C 2.816406 -3.601562 2.722656 -3.535156 2.609375 -3.515625 C 2.503906 -3.492188 2.394531 -3.5 2.28125 -3.53125 C 2.175781 -3.570312 2.078125 -3.609375 1.984375 -3.640625 C 1.566406 -3.734375 1.160156 -3.863281 0.765625 -4.03125 C 0.367188 -4.195312 -0.0664062 -4.367188 -0.546875 -4.546875 C -0.410156 -4.222656 -0.265625 -3.941406 -0.109375 -3.703125 C 0.046875 -3.460938 0.203125 -3.226562 0.359375 -3 C 0.460938 -2.863281 0.554688 -2.734375 0.640625 -2.609375 C 0.734375 -2.484375 0.820312 -2.363281 0.90625 -2.25 C 1 -2.144531 1.0625 -2.03125 1.09375 -1.90625 C 1.125 -1.789062 1.09375 -1.675781 1 -1.5625 C 0.90625 -1.4375 0.796875 -1.378906 0.671875 -1.390625 C 0.554688 -1.398438 0.4375 -1.421875 0.3125 -1.453125 C 0.113281 -1.546875 -0.0976562 -1.640625 -0.328125 -1.734375 C -0.554688 -1.828125 -0.78125 -1.910156 -1 -1.984375 C -1.363281 -2.097656 -1.71875 -2.222656 -2.0625 -2.359375 C -2.414062 -2.492188 -2.757812 -2.640625 -3.09375 -2.796875 C -3.144531 -2.828125 -3.195312 -2.847656 -3.25 -2.859375 C -3.3125 -2.867188 -3.367188 -2.894531 -3.421875 -2.9375 C -3.523438 -3 -3.597656 -3.078125 -3.640625 -3.171875 C -3.679688 -3.265625 -3.6875 -3.375 -3.65625 -3.5 C -3.601562 -3.644531 -3.519531 -3.726562 -3.40625 -3.75 C -3.289062 -3.78125 -3.160156 -3.773438 -3.015625 -3.734375 C -2.773438 -3.628906 -2.53125 -3.519531 -2.28125 -3.40625 C -2.03125 -3.289062 -1.773438 -3.1875 -1.515625 -3.09375 C -1.398438 -3.050781 -1.273438 -3 -1.140625 -2.9375 C -1.003906 -2.882812 -0.863281 -2.882812 -0.71875 -2.9375 C -0.863281 -3.28125 -1.039062 -3.585938 -1.25 -3.859375 C -1.457031 -4.140625 -1.65625 -4.429688 -1.84375 -4.734375 C -1.894531 -4.804688 -1.945312 -4.878906 -2 -4.953125 C -2.0625 -5.023438 -2.109375 -5.101562 -2.140625 -5.1875 C -2.265625 -5.34375 -2.265625 -5.515625 -2.140625 -5.703125 C -2.003906 -5.867188 -1.851562 -5.925781 -1.6875 -5.875 C -1.570312 -5.84375 -1.457031 -5.804688 -1.34375 -5.765625 C -1.226562 -5.734375 -1.125 -5.695312 -1.03125 -5.65625 C -0.632812 -5.519531 -0.238281 -5.375 0.15625 -5.21875 C 0.550781 -5.070312 0.945312 -4.925781 1.34375 -4.78125 C 1.394531 -4.84375 1.410156 -4.898438 1.390625 -4.953125 C 1.378906 -5.003906 1.351562 -5.046875 1.3125 -5.078125 C 1.28125 -5.117188 1.25 -5.160156 1.21875 -5.203125 C 1.007812 -5.617188 0.773438 -6.03125 0.515625 -6.4375 C 0.265625 -6.84375 0.0390625 -7.265625 -0.15625 -7.703125 C -0.257812 -7.878906 -0.34375 -8.0625 -0.40625 -8.25 C -0.445312 -8.375 -0.445312 -8.476562 -0.40625 -8.5625 C -0.363281 -8.644531 -0.296875 -8.71875 -0.203125 -8.78125 C -0.0859375 -8.832031 0.0078125 -8.84375 0.09375 -8.8125 C 0.1875 -8.78125 0.265625 -8.722656 0.328125 -8.640625 C 0.367188 -8.609375 0.398438 -8.570312 0.421875 -8.53125 C 0.441406 -8.488281 0.460938 -8.441406 0.484375 -8.390625 C 0.796875 -7.742188 1.140625 -7.101562 1.515625 -6.46875 C 1.898438 -5.84375 2.289062 -5.226562 2.6875 -4.625 C 2.738281 -4.550781 2.800781 -4.460938 2.875 -4.359375 C 2.945312 -4.265625 2.988281 -4.164062 3 -4.0625 C 3.019531 -3.957031 2.984375 -3.84375 2.890625 -3.71875 Z M 2.890625 -3.71875 "/></g></g></g><g fill="#302e68" fill-opacity="1"><g transform="translate(78.256182, 65.247554)"><g><path d="M 2 -4.28125 C 1.988281 -4.175781 1.945312 -4.09375 1.875 -4.03125 C 1.8125 -3.96875 1.734375 -3.929688 1.640625 -3.921875 C 1.460938 -3.910156 1.28125 -3.898438 1.09375 -3.890625 C 0.914062 -3.890625 0.738281 -3.890625 0.5625 -3.890625 C 0.375 -3.910156 0.222656 -3.878906 0.109375 -3.796875 C -0.00390625 -3.722656 -0.0859375 -3.59375 -0.140625 -3.40625 C -0.160156 -3.34375 -0.179688 -3.28125 -0.203125 -3.21875 C -0.222656 -3.15625 -0.25 -3.09375 -0.28125 -3.03125 C -0.40625 -2.789062 -0.484375 -2.554688 -0.515625 -2.328125 C -0.554688 -2.097656 -0.53125 -1.875 -0.4375 -1.65625 C -0.351562 -1.445312 -0.175781 -1.257812 0.09375 -1.09375 C 0.195312 -1.007812 0.265625 -0.910156 0.296875 -0.796875 C 0.328125 -0.679688 0.289062 -0.554688 0.1875 -0.421875 C 0.101562 -0.328125 0 -0.273438 -0.125 -0.265625 C -0.257812 -0.265625 -0.390625 -0.335938 -0.515625 -0.484375 C -0.859375 -0.828125 -1.195312 -1.175781 -1.53125 -1.53125 C -1.863281 -1.894531 -2.195312 -2.25 -2.53125 -2.59375 C -2.726562 -2.8125 -2.914062 -3.023438 -3.09375 -3.234375 C -3.28125 -3.441406 -3.488281 -3.632812 -3.71875 -3.8125 C -3.832031 -3.894531 -3.914062 -3.988281 -3.96875 -4.09375 C -4.03125 -4.207031 -4.035156 -4.332031 -3.984375 -4.46875 C -3.929688 -4.601562 -3.84375 -4.6875 -3.71875 -4.71875 C -3.601562 -4.757812 -3.476562 -4.773438 -3.34375 -4.765625 C -2.707031 -4.785156 -2.0625 -4.789062 -1.40625 -4.78125 C -0.757812 -4.78125 -0.117188 -4.78125 0.515625 -4.78125 C 0.660156 -4.78125 0.800781 -4.78125 0.9375 -4.78125 C 1.082031 -4.78125 1.222656 -4.78125 1.359375 -4.78125 C 1.421875 -4.769531 1.484375 -4.757812 1.546875 -4.75 C 1.609375 -4.75 1.660156 -4.75 1.703125 -4.75 C 1.929688 -4.632812 2.03125 -4.476562 2 -4.28125 Z M -1.390625 -2.75 C -1.285156 -2.875 -1.207031 -3.007812 -1.15625 -3.15625 C -1.101562 -3.3125 -1.050781 -3.472656 -1 -3.640625 C -0.96875 -3.703125 -0.960938 -3.753906 -0.984375 -3.796875 C -1.015625 -3.847656 -1.082031 -3.878906 -1.1875 -3.890625 C -1.382812 -3.890625 -1.578125 -3.890625 -1.765625 -3.890625 C -1.953125 -3.898438 -2.148438 -3.878906 -2.359375 -3.828125 C -2.097656 -3.410156 -1.773438 -3.050781 -1.390625 -2.75 Z M -1.390625 -2.75 "/></g></g></g><g fill="#302e68" fill-opacity="1"><g transform="translate(81.016204, 58.895903)"><g><path d="M 0.703125 -0.71875 C 0.671875 -0.582031 0.601562 -0.488281 0.5 -0.4375 C 0.40625 -0.382812 0.289062 -0.367188 0.15625 -0.390625 C -0.1875 -0.460938 -0.523438 -0.53125 -0.859375 -0.59375 C -1.191406 -0.664062 -1.523438 -0.738281 -1.859375 -0.8125 C -2.179688 -0.894531 -2.5 -0.976562 -2.8125 -1.0625 C -3.125 -1.144531 -3.453125 -1.175781 -3.796875 -1.15625 C -3.953125 -1.132812 -4.070312 -1.175781 -4.15625 -1.28125 C -4.25 -1.394531 -4.3125 -1.519531 -4.34375 -1.65625 C -4.4375 -2.082031 -4.476562 -2.5 -4.46875 -2.90625 C -4.457031 -3.3125 -4.332031 -3.707031 -4.09375 -4.09375 C -3.914062 -4.375 -3.707031 -4.582031 -3.46875 -4.71875 C -3.226562 -4.863281 -2.984375 -4.9375 -2.734375 -4.9375 C -2.484375 -4.945312 -2.242188 -4.878906 -2.015625 -4.734375 C -1.785156 -4.585938 -1.585938 -4.363281 -1.421875 -4.0625 C -1.367188 -3.96875 -1.316406 -3.867188 -1.265625 -3.765625 C -1.222656 -3.660156 -1.164062 -3.550781 -1.09375 -3.4375 C -0.863281 -3.570312 -0.628906 -3.703125 -0.390625 -3.828125 C -0.160156 -3.953125 0.0625 -4.082031 0.28125 -4.21875 C 0.414062 -4.300781 0.539062 -4.351562 0.65625 -4.375 C 0.78125 -4.394531 0.898438 -4.347656 1.015625 -4.234375 C 1.097656 -4.140625 1.125 -4.023438 1.09375 -3.890625 C 1.0625 -3.753906 0.972656 -3.628906 0.828125 -3.515625 C 0.660156 -3.398438 0.488281 -3.285156 0.3125 -3.171875 C 0.144531 -3.066406 -0.015625 -2.960938 -0.171875 -2.859375 C -0.296875 -2.785156 -0.410156 -2.71875 -0.515625 -2.65625 C -0.628906 -2.59375 -0.726562 -2.523438 -0.8125 -2.453125 C -0.957031 -2.335938 -1.023438 -2.210938 -1.015625 -2.078125 C -1.015625 -1.953125 -1.007812 -1.820312 -1 -1.6875 C -1 -1.613281 -0.972656 -1.5625 -0.921875 -1.53125 C -0.878906 -1.507812 -0.820312 -1.492188 -0.75 -1.484375 C -0.6875 -1.484375 -0.625 -1.472656 -0.5625 -1.453125 C -0.414062 -1.410156 -0.265625 -1.375 -0.109375 -1.34375 C 0.046875 -1.3125 0.203125 -1.269531 0.359375 -1.21875 C 0.484375 -1.1875 0.578125 -1.128906 0.640625 -1.046875 C 0.710938 -0.972656 0.734375 -0.863281 0.703125 -0.71875 Z M -2.78125 -2 C -2.71875 -1.976562 -2.648438 -1.957031 -2.578125 -1.9375 C -2.503906 -1.925781 -2.441406 -1.910156 -2.390625 -1.890625 C -2.179688 -1.859375 -2.046875 -1.859375 -1.984375 -1.890625 C -1.929688 -1.929688 -1.898438 -2.050781 -1.890625 -2.25 C -1.898438 -2.5 -1.921875 -2.738281 -1.953125 -2.96875 C -1.992188 -3.195312 -2.070312 -3.414062 -2.1875 -3.625 C -2.351562 -3.90625 -2.53125 -4.046875 -2.71875 -4.046875 C -2.914062 -4.054688 -3.101562 -3.9375 -3.28125 -3.6875 C -3.332031 -3.59375 -3.375 -3.503906 -3.40625 -3.421875 C -3.445312 -3.335938 -3.476562 -3.257812 -3.5 -3.1875 C -3.582031 -2.90625 -3.617188 -2.6875 -3.609375 -2.53125 C -3.597656 -2.382812 -3.523438 -2.269531 -3.390625 -2.1875 C -3.265625 -2.113281 -3.0625 -2.050781 -2.78125 -2 Z M -2.78125 -2 "/></g></g></g><g fill="#302e68" fill-opacity="1"><g transform="translate(82.419382, 52.72681)"><g><path d="M -0.078125 -1.078125 C -0.015625 -0.984375 -0.0195312 -0.890625 -0.09375 -0.796875 C -0.164062 -0.710938 -0.25 -0.644531 -0.34375 -0.59375 C -0.457031 -0.5625 -0.566406 -0.539062 -0.671875 -0.53125 C -0.785156 -0.53125 -0.898438 -0.535156 -1.015625 -0.546875 C -1.472656 -0.554688 -1.925781 -0.566406 -2.375 -0.578125 C -2.832031 -0.597656 -3.289062 -0.59375 -3.75 -0.5625 C -3.882812 -0.550781 -4.019531 -0.539062 -4.15625 -0.53125 C -4.289062 -0.53125 -4.414062 -0.515625 -4.53125 -0.484375 C -4.769531 -0.429688 -4.941406 -0.445312 -5.046875 -0.53125 C -5.148438 -0.613281 -5.207031 -0.765625 -5.21875 -0.984375 C -5.238281 -1.109375 -5.242188 -1.234375 -5.234375 -1.359375 C -5.222656 -1.484375 -5.222656 -1.601562 -5.234375 -1.71875 C -5.210938 -2.039062 -5.164062 -2.347656 -5.09375 -2.640625 C -5.03125 -2.941406 -4.9375 -3.234375 -4.8125 -3.515625 C -4.59375 -4.023438 -4.28125 -4.398438 -3.875 -4.640625 C -3.476562 -4.878906 -3 -4.96875 -2.4375 -4.90625 C -1.75 -4.84375 -1.207031 -4.597656 -0.8125 -4.171875 C -0.425781 -3.742188 -0.222656 -3.175781 -0.203125 -2.46875 C -0.203125 -2.3125 -0.207031 -2.15625 -0.21875 -2 C -0.226562 -1.84375 -0.226562 -1.6875 -0.21875 -1.53125 C -0.207031 -1.382812 -0.160156 -1.234375 -0.078125 -1.078125 Z M -3.90625 -1.46875 C -3.550781 -1.46875 -3.195312 -1.46875 -2.84375 -1.46875 C -2.5 -1.46875 -2.15625 -1.46875 -1.8125 -1.46875 C -1.601562 -1.46875 -1.445312 -1.484375 -1.34375 -1.515625 C -1.238281 -1.554688 -1.164062 -1.628906 -1.125 -1.734375 C -1.09375 -1.835938 -1.070312 -2.003906 -1.0625 -2.234375 C -1.082031 -2.316406 -1.09375 -2.414062 -1.09375 -2.53125 C -1.101562 -2.65625 -1.113281 -2.773438 -1.125 -2.890625 C -1.1875 -3.203125 -1.320312 -3.453125 -1.53125 -3.640625 C -1.75 -3.835938 -2.019531 -3.960938 -2.34375 -4.015625 C -2.71875 -4.078125 -3.03125 -4.054688 -3.28125 -3.953125 C -3.539062 -3.859375 -3.742188 -3.679688 -3.890625 -3.421875 C -4.003906 -3.179688 -4.097656 -2.9375 -4.171875 -2.6875 C -4.253906 -2.445312 -4.304688 -2.195312 -4.328125 -1.9375 C -4.328125 -1.789062 -4.320312 -1.679688 -4.3125 -1.609375 C -4.300781 -1.546875 -4.265625 -1.503906 -4.203125 -1.484375 C -4.148438 -1.472656 -4.050781 -1.46875 -3.90625 -1.46875 Z M -3.90625 -1.46875 "/></g></g></g></svg>